<svg width="22" height="22" viewBox="0 0 22 22" fill="none" xmlns="http://www.w3.org/2000/svg">
<g opacity="0.7">
<path d="M15.5851 1.02319H5.5982C2.84039 1.02319 0.604736 3.25884 0.604736 6.01666V16.0036C0.604736 18.7614 2.84039 20.9971 5.5982 20.9971H15.5851C18.3429 20.9971 20.5786 18.7614 20.5786 16.0036V6.01666C20.5786 3.25884 18.3429 1.02319 15.5851 1.02319Z" fill="white" stroke="white" stroke-opacity="0.8" stroke-linecap="round" stroke-linejoin="round"/>
<path d="M14.5863 10.3805C14.7095 11.2116 14.5676 12.0605 14.1806 12.8063C13.7936 13.5521 13.1813 14.157 12.4307 14.5347C11.6802 14.9125 10.8297 15.044 10.0001 14.9105C9.1705 14.777 8.40414 14.3853 7.81 13.7912C7.21586 13.197 6.82418 12.4307 6.69069 11.6011C6.5572 10.7715 6.68869 9.92098 7.06646 9.17045C7.44423 8.41991 8.04903 7.8076 8.79486 7.4206C9.54068 7.03361 10.3895 6.89164 11.2207 7.01489C12.0685 7.14061 12.8534 7.53568 13.4595 8.14172C14.0655 8.74777 14.4606 9.53267 14.5863 10.3805Z" fill="white" stroke="#000E78" stroke-linecap="round" stroke-linejoin="round"/>
<path d="M16.0844 5.51733H16.0938" stroke="#000E78" stroke-linecap="round" stroke-linejoin="round"/>
</g>
</svg>
