<svg width="25" height="21" viewBox="0 0 25 21" fill="none" xmlns="http://www.w3.org/2000/svg">
<g opacity="0.7">
<path d="M24.1628 0.0344014C23.1182 0.787287 21.9615 1.36312 20.7374 1.73974C20.0804 0.96789 19.2072 0.420824 18.236 0.172529C17.2647 -0.0757651 16.2423 -0.0133082 15.3069 0.351453C14.3716 0.716214 13.5684 1.36568 13.0061 2.21201C12.4438 3.05834 12.1494 4.06071 12.1628 5.08353V6.19813C10.2457 6.24892 8.34605 5.8145 6.63303 4.93356C4.92002 4.05262 3.44682 2.7525 2.34466 1.149C2.34466 1.149 -2.01898 11.1804 7.79921 15.6388C5.55251 17.1969 2.8761 17.9782 0.162842 17.868C9.98102 23.441 21.981 17.868 21.981 5.05009C21.98 4.73963 21.9508 4.42992 21.8938 4.12498C23.0071 3.00313 23.7928 1.58672 24.1628 0.0344014Z" fill="white"/>
</g>
</svg>
