<svg width="28" height="20" viewBox="0 0 28 20" fill="none" xmlns="http://www.w3.org/2000/svg">
<path opacity="0.7" d="M26.2533 3.88872C26.1138 3.33131 25.8296 2.82058 25.4295 2.40813C25.0295 1.99568 24.5276 1.69611 23.9747 1.53968C21.9546 1.04639 13.8739 1.04639 13.8739 1.04639C13.8739 1.04639 5.79318 1.04639 3.77301 1.58667C3.2201 1.74309 2.71826 2.04266 2.31819 2.45511C1.91811 2.86756 1.63396 3.37829 1.49444 3.9357C1.12472 5.98589 0.943869 8.06567 0.954163 10.1489C0.940984 12.2478 1.12185 14.3435 1.49444 16.4091C1.64826 16.9492 1.93877 17.4405 2.33791 17.8355C2.73706 18.2305 3.23134 18.516 3.77301 18.6642C5.79318 19.2044 13.8739 19.2044 13.8739 19.2044C13.8739 19.2044 21.9546 19.2044 23.9747 18.6642C24.5276 18.5077 25.0295 18.2082 25.4295 17.7957C25.8296 17.3833 26.1138 16.8725 26.2533 16.3151C26.6202 14.2804 26.801 12.2164 26.7936 10.1489C26.8067 8.04999 26.6259 5.95434 26.2533 3.88872Z" fill="white" stroke="white" stroke-opacity="0.8" stroke-linecap="round" stroke-linejoin="round"/>
<path d="M11.2312 13.9897L17.9847 10.149L11.2312 6.30835V13.9897Z" stroke="#000E78" stroke-linecap="round" stroke-linejoin="round"/>
</svg>
